<?xml version="1.0" encoding="UTF-8" standalone="no"?>
<svg
   xmlns:osb="http://www.openswatchbook.org/uri/2009/osb"
   xmlns:dc="http://purl.org/dc/elements/1.1/"
   xmlns:cc="http://creativecommons.org/ns#"
   xmlns:rdf="http://www.w3.org/1999/02/22-rdf-syntax-ns#"
   xmlns:svg="http://www.w3.org/2000/svg"
   xmlns="http://www.w3.org/2000/svg"
   xmlns:xlink="http://www.w3.org/1999/xlink"
   xmlns:sodipodi="http://sodipodi.sourceforge.net/DTD/sodipodi-0.dtd"
   xmlns:inkscape="http://www.inkscape.org/namespaces/inkscape"
   version="1.1"
   id="Layer_1"
   x="0px"
   y="0px"
   viewBox="0 0 512 512"
   style="enable-background:new 0 0 512 512;"
   xml:space="preserve"
   sodipodi:docname="icon.svg"
   inkscape:version="1.0.2 (e86c870879, 2021-01-15)"><metadata
   id="metadata169"><rdf:RDF><cc:Work
       rdf:about=""><dc:format>image/svg+xml</dc:format><dc:type
         rdf:resource="http://purl.org/dc/dcmitype/StillImage" /><dc:title /></cc:Work></rdf:RDF></metadata><defs
   id="defs167"><marker
     style="overflow:visible"
     id="Arrow1Lstart"
     refX="0.0"
     refY="0.0"
     orient="auto"
     inkscape:stockid="Arrow1Lstart"
     inkscape:isstock="true"><path
       transform="scale(0.8) translate(12.5,0)"
       style="fill-rule:evenodd;stroke:#000000;stroke-width:1.0pt"
       d="M 0.0,0.0 L 5.0,-5.0 L -12.5,0.0 L 5.0,5.0 L 0.0,0.0 z "
       id="path1282" /></marker><linearGradient
     inkscape:collect="always"
     id="linearGradient1021-3"><stop
       style="stop-color:#00ffff;stop-opacity:1;"
       offset="0"
       id="stop1017" /><stop
       style="stop-color:#00ffff;stop-opacity:0;"
       offset="1"
       id="stop1019" /></linearGradient><linearGradient
     id="linearGradient1005"
     osb:paint="solid"><stop
       style="stop-color:#000000;stop-opacity:1;"
       offset="0"
       id="stop1003" /></linearGradient><linearGradient
     inkscape:collect="always"
     xlink:href="#linearGradient1021-3"
     id="linearGradient1023"
     x1="37.035"
     y1="256"
     x2="474.965"
     y2="256"
     gradientUnits="userSpaceOnUse" /><linearGradient
     inkscape:collect="always"
     xlink:href="#linearGradient1021-3"
     id="linearGradient1031"
     x1="232.12247"
     y1="258.0239"
     x2="341.84189"
     y2="258.0239"
     gradientUnits="userSpaceOnUse" /></defs><sodipodi:namedview
   pagecolor="#ffffff"
   bordercolor="#666666"
   borderopacity="1"
   objecttolerance="10"
   gridtolerance="10"
   guidetolerance="10"
   inkscape:pageopacity="0"
   inkscape:pageshadow="2"
   inkscape:window-width="1680"
   inkscape:window-height="1026"
   id="namedview165"
   showgrid="false"
   inkscape:zoom="1.2029102"
   inkscape:cx="53.898636"
   inkscape:cy="334.89071"
   inkscape:window-x="0"
   inkscape:window-y="0"
   inkscape:window-maximized="0"
   inkscape:current-layer="Layer_1"
   inkscape:document-rotation="0" />
<g
   id="g126"
   style="stroke:#000000;stroke-opacity:1;stroke-width:5.33333333;stroke-miterlimit:4;stroke-dasharray:none;fill:#00cdc9;fill-opacity:1">
	<g
   id="g124"
   style="stroke:#000000;stroke-opacity:1;stroke-width:5.33333333;stroke-miterlimit:4;stroke-dasharray:none;fill:#00cdc9;fill-opacity:1">
		<path
   d="M392.09,122.767l15.446-24.272c6.858-10.778,3.681-25.076-7.097-31.935c-10.777-6.86-25.076-3.681-31.935,7.099    l-15.409,24.215c-22.708-11.316-47.642-18.798-73.962-21.58V46.265h1.448c12.775,0,23.133-10.357,23.133-23.133    S293.356,0,280.581,0h-49.163c-12.775,0-23.133,10.357-23.133,23.133s10.357,23.133,23.133,23.133h1.45v30.029    C123.239,87.885,37.535,180.886,37.535,293.535C37.535,413.997,135.538,512,256,512s218.465-98.003,218.465-218.465    C474.465,224.487,442.259,162.83,392.09,122.767z M256,465.735c-94.951,0-172.2-77.249-172.2-172.2s77.249-172.2,172.2-172.2    s172.2,77.249,172.2,172.2S350.951,465.735,256,465.735z"
   id="path122"
   style="stroke:#000000;stroke-opacity:1;stroke-width:5.33333333;stroke-miterlimit:4;stroke-dasharray:none;fill:#00cdc9;fill-opacity:1" />
	</g>
</g>
<g
   id="g132"
   style="fill-rule:nonzero;fill-opacity:1;fill:#00cdc9;stroke:#000000;stroke-opacity:1;stroke-width:5.33333333;stroke-miterlimit:4;stroke-dasharray:none;opacity:1">
	<g
   id="g130"
   style="fill-rule:nonzero;fill-opacity:1;fill:#00cdc9;stroke:#000000;stroke-opacity:1;stroke-width:5.33333333;stroke-miterlimit:4;stroke-dasharray:none">
		<path
   d="M333.172,205.084c-9.623-8.397-24.238-7.407-32.638,2.222l-61.964,71.02c-8.399,9.626-7.404,24.24,2.222,32.638    c9.626,8.399,24.24,7.404,32.638-2.222l61.964-71.02C343.794,228.096,342.798,213.484,333.172,205.084z"
   id="path128"
   style="fill-rule:nonzero;fill-opacity:1;fill:#00cdc9;stroke:#000000;stroke-opacity:1;stroke-width:5.33333333;stroke-miterlimit:4;stroke-dasharray:none" />
	</g>
</g>
<g
   id="g134">
</g>
<g
   id="g136">
</g>
<g
   id="g138">
</g>
<g
   id="g140">
</g>
<g
   id="g142">
</g>
<g
   id="g144">
</g>
<g
   id="g146">
</g>
<g
   id="g148">
</g>
<g
   id="g150">
</g>
<g
   id="g152">
</g>
<g
   id="g154">
</g>
<g
   id="g156">
</g>
<g
   id="g158">
</g>
<g
   id="g160">
</g>
<g
   id="g162">
</g>
<g
   style="fill:#00cdc9;fill-opacity:1;stroke:#000004;stroke-width:0.526325;stroke-linecap:round;stroke-linejoin:round;stroke-miterlimit:4;stroke-dasharray:none;stroke-opacity:1"
   id="g1270"
   transform="matrix(17.616728,0,0,14.246143,39.007765,145.63695)"><path
     d="M 18,13 26,2 8,13 14,19 6,30 24,19 Z"
     id="path1260"
     style="fill:#00cdc9;fill-opacity:1;stroke:#000004;stroke-width:0.526325;stroke-miterlimit:4;stroke-dasharray:none;stroke-opacity:1" /></g></svg>
